<?xml version="1.0" standalone="no"?>
<!DOCTYPE svg PUBLIC "-//W3C//DTD SVG 20010904//EN"
 "http://www.w3.org/TR/2001/REC-SVG-20010904/DTD/svg10.dtd">
<svg version="1.0" xmlns="http://www.w3.org/2000/svg"
 width="119.000000pt" height="119.000000pt" viewBox="0 0 119.000000 119.000000"
 preserveAspectRatio="xMidYMid meet">
<metadata>
Created by potrace 1.14, written by Peter Selinger 2001-2017
</metadata>
<g transform="translate(0.000000,119.000000) scale(0.100000,-0.100000)"
fill="#000000" stroke="none">
<path d="M608 1073 c28 -11 8 -18 -56 -20 -37 -1 -110 -4 -162 -7 -52 -2 -102
-5 -111 -5 -9 -1 -47 -23 -85 -51 -38 -27 -76 -50 -86 -50 -44 0 -105 -89
-101 -147 3 -30 74 -172 136 -270 37 -57 107 -89 107 -48 0 7 6 17 13 23 9 8
25 -11 66 -76 152 -242 188 -285 256 -309 17 -6 45 -8 63 -5 47 6 128 98 182
208 25 49 56 105 69 124 12 19 27 46 33 60 l10 25 11 -34 c12 -34 52 -57 73
-42 17 11 60 85 107 182 60 122 68 188 33 255 -21 39 -36 51 -122 95 -63 33
-124 57 -169 65 -69 14 -101 12 -91 -5 3 -4 -24 2 -60 15 -36 13 -79 24 -97
23 -18 0 -26 -3 -19 -6z m52 -15 c0 -4 -7 -8 -15 -8 -8 0 -15 4 -15 8 0 5 7 9
15 9 8 0 15 -4 15 -9z m-480 -112 c0 -2 -8 -10 -17 -17 -16 -13 -17 -12 -4 4
13 16 21 21 21 13z m170 -490 c0 -3 -4 -8 -10 -11 -5 -3 -10 -1 -10 4 0 6 5
11 10 11 6 0 10 -2 10 -4z"/>
</g>
</svg>
